ISO-10303-21;
HEADER;
FILE_DESCRIPTION(('ViewDefinition [ReferenceView]'),'2;1');
FILE_NAME('testhaus.ifc','2026-09-28T12:00:00',('Test'),('arch-flaechen-tool'),'handgeschrieben','handgeschrieben','');
FILE_SCHEMA(('IFC4'));
ENDSEC;
DATA;
#1= IFCPROJECT('0000000000000000000001',$,'Testhaus',$,$,$,$,(#20),#10);
#10= IFCUNITASSIGNMENT((#11,#12));
#11= IFCSIUNIT(*,.LENGTHUNIT.,.MILLI.,.METRE.);
#12= IFCSIUNIT(*,.AREAUNIT.,$,.SQUARE_METRE.);
#20= IFCGEOMETRICREPRESENTATIONCONTEXT($,'Model',3,1.E-05,#21,$);
#21= IFCAXIS2PLACEMENT3D(#22,$,$);
#22= IFCCARTESIANPOINT((0.,0.,0.));
#23= IFCDIRECTION((0.,0.,1.));
#30= IFCBUILDING('0000000000000000000002',$,'Haus',$,$,#31,$,$,.ELEMENT.,$,$,$);
#31= IFCLOCALPLACEMENT($,#21);
#40= IFCBUILDINGSTOREY('0000000000000000000003',$,'EG',$,$,#41,$,$,.ELEMENT.,0.);
#41= IFCLOCALPLACEMENT(#31,#21);
#50= IFCBUILDINGSTOREY('0000000000000000000004',$,'OG',$,$,#51,$,$,.ELEMENT.,3000.);
#51= IFCLOCALPLACEMENT(#31,#52);
#52= IFCAXIS2PLACEMENT3D(#53,$,$);
#53= IFCCARTESIANPOINT((0.,0.,3000.));
#101= IFCCARTESIANPOINT((0.0,0.0));
#102= IFCCARTESIANPOINT((10000.0,0.0));
#103= IFCCARTESIANPOINT((10000.0,8000.0));
#104= IFCCARTESIANPOINT((0.0,8000.0));
#105= IFCPOLYLINE((#101,#102,#103,#104,#101));
#106= IFCCARTESIANPOINT((300.0,300.0));
#107= IFCCARTESIANPOINT((9700.0,300.0));
#108= IFCCARTESIANPOINT((9700.0,7700.0));
#109= IFCCARTESIANPOINT((300.0,7700.0));
#110= IFCPOLYLINE((#106,#107,#108,#109,#106));
#111= IFCARBITRARYPROFILEDEFWITHVOIDS(.AREA.,$,#105,(#110));
#112= IFCCARTESIANPOINT((0.,0.,0.0));
#113= IFCAXIS2PLACEMENT3D(#112,$,$);
#114= IFCLOCALPLACEMENT(#41,#113);
#115= IFCCARTESIANPOINT((0.,0.,0.0));
#116= IFCAXIS2PLACEMENT3D(#115,$,$);
#117= IFCEXTRUDEDAREASOLID(#111,#116,#23,3000.0);
#118= IFCSHAPEREPRESENTATION(#20,'Body','SweptSolid',(#117));
#119= IFCPRODUCTDEFINITIONSHAPE($,$,(#118));
#120= IFCWALL('0000000000000000000005',$,'Außenwand',$,$,#114,#119,$,.SOLIDWALL.);
#121= IFCCARTESIANPOINT((0.0,0.0));
#122= IFCCARTESIANPOINT((10000.0,0.0));
#123= IFCCARTESIANPOINT((10000.0,8000.0));
#124= IFCCARTESIANPOINT((0.0,8000.0));
#125= IFCPOLYLINE((#121,#122,#123,#124,#121));
#126= IFCCARTESIANPOINT((300.0,300.0));
#127= IFCCARTESIANPOINT((9700.0,300.0));
#128= IFCCARTESIANPOINT((9700.0,7700.0));
#129= IFCCARTESIANPOINT((300.0,7700.0));
#130= IFCPOLYLINE((#126,#127,#128,#129,#126));
#131= IFCARBITRARYPROFILEDEFWITHVOIDS(.AREA.,$,#125,(#130));
#132= IFCCARTESIANPOINT((0.,0.,0.0));
#133= IFCAXIS2PLACEMENT3D(#132,$,$);
#134= IFCLOCALPLACEMENT(#51,#133);
#135= IFCCARTESIANPOINT((0.,0.,0.0));
#136= IFCAXIS2PLACEMENT3D(#135,$,$);
#137= IFCEXTRUDEDAREASOLID(#131,#136,#23,3000.0);
#138= IFCSHAPEREPRESENTATION(#20,'Body','SweptSolid',(#137));
#139= IFCPRODUCTDEFINITIONSHAPE($,$,(#138));
#140= IFCWALL('0000000000000000000006',$,'Außenwand',$,$,#134,#139,$,.SOLIDWALL.);
#141= IFCCARTESIANPOINT((300.0,300.0));
#142= IFCCARTESIANPOINT((9700.0,300.0));
#143= IFCCARTESIANPOINT((9700.0,7700.0));
#144= IFCCARTESIANPOINT((300.0,7700.0));
#145= IFCPOLYLINE((#141,#142,#143,#144,#141));
#146= IFCARBITRARYCLOSEDPROFILEDEF(.AREA.,$,#145);
#147= IFCCARTESIANPOINT((0.,0.,0.0));
#148= IFCAXIS2PLACEMENT3D(#147,$,$);
#149= IFCLOCALPLACEMENT(#41,#148);
#150= IFCCARTESIANPOINT((0.,0.,0.0));
#151= IFCAXIS2PLACEMENT3D(#150,$,$);
#152= IFCEXTRUDEDAREASOLID(#146,#151,#23,2500.0);
#153= IFCSHAPEREPRESENTATION(#20,'Body','SweptSolid',(#152));
#154= IFCPRODUCTDEFINITIONSHAPE($,$,(#153));
#155= IFCSPACE('0000000000000000000007',$,'1',$,$,#149,#154,'Wohnen',.ELEMENT.,.SPACE.,$);
#156= IFCQUANTITYAREA('NetFloorArea',$,$,67.4732,$);
#157= IFCELEMENTQUANTITY('0000000000000000000008',$,'Qto_SpaceBaseQuantities',$,$,(#156));
#158= IFCRELDEFINESBYPROPERTIES('0000000000000000000009',$,$,$,(#155),#157);
#159= IFCCARTESIANPOINT((0.0,0.0));
#160= IFCCARTESIANPOINT((10000.0,0.0));
#161= IFCCARTESIANPOINT((10000.0,8000.0));
#162= IFCCARTESIANPOINT((0.0,8000.0));
#163= IFCPOLYLINE((#159,#160,#161,#162,#159));
#164= IFCARBITRARYCLOSEDPROFILEDEF(.AREA.,$,#163);
#165= IFCCARTESIANPOINT((0.,0.,3000.0));
#166= IFCAXIS2PLACEMENT3D(#165,$,$);
#167= IFCLOCALPLACEMENT(#51,#166);
#168= IFCCARTESIANPOINT((0.,0.,0.0));
#169= IFCAXIS2PLACEMENT3D(#168,$,$);
#170= IFCEXTRUDEDAREASOLID(#164,#169,#23,300.0);
#171= IFCSHAPEREPRESENTATION(#20,'Body','SweptSolid',(#170));
#172= IFCPRODUCTDEFINITIONSHAPE($,$,(#171));
#173= IFCSLAB('0000000000000000000010',$,'Dach',$,$,#167,#172,$,.ROOF.);
#174= IFCRELAGGREGATES('0000000000000000000011',$,$,$,#1,(#30));
#175= IFCRELAGGREGATES('0000000000000000000012',$,$,$,#30,(#40,#50));
#176= IFCRELAGGREGATES('0000000000000000000013',$,$,$,#40,(#155));
#177= IFCRELCONTAINEDINSPATIALSTRUCTURE('0000000000000000000014',$,$,$,(#120),#40);
#178= IFCRELCONTAINEDINSPATIALSTRUCTURE('0000000000000000000015',$,$,$,(#140,#173),#50);
ENDSEC;
END-ISO-10303-21;
